<svg xmlns="http://www.w3.org/2000/svg" width="620" height="620" viewBox="0 0 620 620" style="background:white;font-family:Arial,sans-serif;">
  <defs>
    <marker id="open" viewBox="0 0 10 10" refX="9" refY="5"
            markerWidth="7" markerHeight="7" orient="auto">
      <path d="M1 1L9 5L1 9" fill="none" stroke="#333"
            stroke-width="1.5" stroke-linejoin="round"/>
    </marker>
  </defs>
  <rect x="155" y="30" width="400" height="560" rx="5" fill="none" stroke="#333" stroke-width="1.8"/>
  <text x="355" y="52" text-anchor="middle" font-size="13" font-weight="bold" fill="#333">SPF-OMS: Machine Operator</text>
  <ellipse cx="355" cy="95" rx="118" ry="18" fill="#f4f4f4" stroke="#333" stroke-width="1"/>
  <text x="355" y="88.5" text-anchor="middle" dominant-baseline="central" font-size="11" fill="#222">UC1.1 Log Production</text>
  <text x="355" y="101.5" text-anchor="middle" dominant-baseline="central" font-size="11" fill="#222">Batch</text>
  <ellipse cx="355" cy="177" rx="118" ry="18" fill="#f4f4f4" stroke="#333" stroke-width="1"/>
  <text x="355" y="170.5" text-anchor="middle" dominant-baseline="central" font-size="11" fill="#222">UC1.2 Log Operator</text>
  <text x="355" y="183.5" text-anchor="middle" dominant-baseline="central" font-size="11" fill="#222">Notes on Batch</text>
  <ellipse cx="355" cy="259" rx="118" ry="18" fill="#f4f4f4" stroke="#333" stroke-width="1"/>
  <text x="355" y="252.5" text-anchor="middle" dominant-baseline="central" font-size="11" fill="#222">UC1.3 Log Machine</text>
  <text x="355" y="265.5" text-anchor="middle" dominant-baseline="central" font-size="11" fill="#222">Downtime</text>
  <ellipse cx="355" cy="341" rx="118" ry="18" fill="#f4f4f4" stroke="#333" stroke-width="1"/>
  <text x="355" y="334.5" text-anchor="middle" dominant-baseline="central" font-size="11" fill="#222">UC1.4 Record Shift</text>
  <text x="355" y="347.5" text-anchor="middle" dominant-baseline="central" font-size="11" fill="#222">Handover Notes</text>
  <ellipse cx="355" cy="423" rx="118" ry="18" fill="#f4f4f4" stroke="#333" stroke-width="1"/>
  <text x="355" y="416.5" text-anchor="middle" dominant-baseline="central" font-size="11" fill="#222">UC1.5 Review Machine</text>
  <text x="355" y="429.5" text-anchor="middle" dominant-baseline="central" font-size="11" fill="#222">Output History</text>
  <ellipse cx="355" cy="505" rx="118" ry="18" fill="#f4f4f4" stroke="#333" stroke-width="1"/>
  <text x="355" y="498.5" text-anchor="middle" dominant-baseline="central" font-size="11" fill="#222">UC1.6 View Personal</text>
  <text x="355" y="511.5" text-anchor="middle" dominant-baseline="central" font-size="11" fill="#222">Shift Assignments</text>
  <circle cx="72" cy="280" r="11" fill="none" stroke="#333" stroke-width="1.5"/>
  <line x1="72" y1="291" x2="72" y2="320" stroke="#333" stroke-width="1.5"/>
  <line x1="55" y1="304" x2="89" y2="304" stroke="#333" stroke-width="1.5"/>
  <line x1="72" y1="320" x2="59" y2="342" stroke="#333" stroke-width="1.5"/>
  <line x1="72" y1="320" x2="85" y2="342" stroke="#333" stroke-width="1.5"/>
  <text x="72" y="356" text-anchor="middle" font-size="12" fill="#333">Machine Operator</text>
  <line x1="92.1" y1="266.9" x2="256.2" y2="104.8" stroke="#333" stroke-width="1"/>
  <line x1="94.6" y1="271.8" x2="244.1" y2="183.2" stroke="#333" stroke-width="1"/>
  <line x1="95.9" y1="278.2" x2="237.3" y2="260.3" stroke="#333" stroke-width="1"/>
  <line x1="95.5" y1="285.1" x2="239.6" y2="337.2" stroke="#333" stroke-width="1"/>
  <line x1="93.4" y1="290.8" x2="249.7" y2="414.9" stroke="#333" stroke-width="1"/>
  <line x1="90.8" y1="294.9" x2="262.6" y2="493.8" stroke="#333" stroke-width="1"/>
  <path d="M473,177 C500,177 500,95 473,95" fill="none" stroke="#555" stroke-width="1" stroke-dasharray="6 3" marker-end="url(#open)"/>
  <text x="477" y="136" text-anchor="start" dominant-baseline="central" font-size="9" fill="#555">«extend»</text>
  <path d="M473,341 C500,341 500,259 473,259" fill="none" stroke="#555" stroke-width="1" stroke-dasharray="6 3" marker-end="url(#open)"/>
  <text x="477" y="300" text-anchor="start" dominant-baseline="central" font-size="9" fill="#555">«extend»</text>
  <path d="M473,423 C520,423 520,95 473,95" fill="none" stroke="#555" stroke-width="1" stroke-dasharray="6 3" marker-end="url(#open)"/>
  <text x="525" y="259" text-anchor="start" dominant-baseline="central" font-size="9" fill="#555">«include»</text>
</svg>
