<svg xmlns="http://www.w3.org/2000/svg" width="700" height="640" viewBox="0 0 700 640" style="background:white;font-family:Arial,sans-serif;">
  <defs>
    <marker id="open" viewBox="0 0 10 10" refX="9" refY="5"
            markerWidth="7" markerHeight="7" orient="auto">
      <path d="M1 1L9 5L1 9" fill="none" stroke="#333"
            stroke-width="1.5" stroke-linejoin="round"/>
    </marker>
  </defs>
  <rect x="145" y="30" width="430" height="590" rx="5" fill="none" stroke="#333" stroke-width="1.8"/>
  <text x="360" y="52" text-anchor="middle" font-size="13" font-weight="bold" fill="#333">SPF-OMS: Owner — Orders &amp; Clients</text>
  <ellipse cx="360" cy="95" rx="118" ry="18" fill="#f4f4f4" stroke="#333" stroke-width="1"/>
  <text x="360" y="88.5" text-anchor="middle" dominant-baseline="central" font-size="11" fill="#222">UC4.1 Manage Client</text>
  <text x="360" y="101.5" text-anchor="middle" dominant-baseline="central" font-size="11" fill="#222">Accounts</text>
  <ellipse cx="360" cy="177" rx="118" ry="18" fill="#f4f4f4" stroke="#333" stroke-width="1"/>
  <text x="360" y="170.5" text-anchor="middle" dominant-baseline="central" font-size="11" fill="#222">UC4.2 Manage Sales</text>
  <text x="360" y="183.5" text-anchor="middle" dominant-baseline="central" font-size="11" fill="#222">Orders</text>
  <ellipse cx="360" cy="259" rx="118" ry="18" fill="#f4f4f4" stroke="#333" stroke-width="1"/>
  <text x="360" y="252.5" text-anchor="middle" dominant-baseline="central" font-size="11" fill="#222">UC4.3 Assign Finished</text>
  <text x="360" y="265.5" text-anchor="middle" dominant-baseline="central" font-size="11" fill="#222">Goods to Sales Orders</text>
  <ellipse cx="360" cy="341" rx="118" ry="18" fill="#f4f4f4" stroke="#333" stroke-width="1"/>
  <text x="360" y="334.5" text-anchor="middle" dominant-baseline="central" font-size="11" fill="#222">UC4.4 Record Returned</text>
  <text x="360" y="347.5" text-anchor="middle" dominant-baseline="central" font-size="11" fill="#222">Goods</text>
  <ellipse cx="360" cy="423" rx="118" ry="18" fill="#f4f4f4" stroke="#333" stroke-width="1"/>
  <text x="360" y="416.5" text-anchor="middle" dominant-baseline="central" font-size="11" fill="#222">UC4.5 Resolve Delivery</text>
  <text x="360" y="429.5" text-anchor="middle" dominant-baseline="central" font-size="11" fill="#222">Issues</text>
  <ellipse cx="360" cy="505" rx="118" ry="18" fill="#f4f4f4" stroke="#333" stroke-width="1"/>
  <text x="360" y="498.5" text-anchor="middle" dominant-baseline="central" font-size="11" fill="#222">UC4.6 View Delivery</text>
  <text x="360" y="511.5" text-anchor="middle" dominant-baseline="central" font-size="11" fill="#222">Manifest</text>
  <circle cx="68" cy="295" r="11" fill="none" stroke="#333" stroke-width="1.5"/>
  <line x1="68" y1="306" x2="68" y2="335" stroke="#333" stroke-width="1.5"/>
  <line x1="51" y1="319" x2="85" y2="319" stroke="#333" stroke-width="1.5"/>
  <line x1="68" y1="335" x2="55" y2="357" stroke="#333" stroke-width="1.5"/>
  <line x1="68" y1="335" x2="81" y2="357" stroke="#333" stroke-width="1.5"/>
  <text x="68" y="371" text-anchor="middle" font-size="12" fill="#333">Founder</text>
  <text x="68" y="386" text-anchor="middle" font-size="12" fill="#333">Owner</text>
  <line x1="87.8" y1="281.4" x2="262.6" y2="105.2" stroke="#333" stroke-width="1"/>
  <line x1="90.3" y1="286.0" x2="250.6" y2="183.7" stroke="#333" stroke-width="1"/>
  <line x1="91.8" y1="292.1" x2="242.9" y2="261.2" stroke="#333" stroke-width="1"/>
  <line x1="91.7" y1="298.7" x2="243.4" y2="338.2" stroke="#333" stroke-width="1"/>
  <line x1="90.0" y1="304.6" x2="251.9" y2="415.8" stroke="#333" stroke-width="1"/>
  <line x1="87.5" y1="309.0" x2="264.2" y2="494.5" stroke="#333" stroke-width="1"/>
  <circle cx="570" cy="473" r="11" fill="none" stroke="#333" stroke-width="1.5"/>
  <line x1="570" y1="484" x2="570" y2="513" stroke="#333" stroke-width="1.5"/>
  <line x1="553" y1="497" x2="587" y2="497" stroke="#333" stroke-width="1.5"/>
  <line x1="570" y1="513" x2="557" y2="535" stroke="#333" stroke-width="1.5"/>
  <line x1="570" y1="513" x2="583" y2="535" stroke="#333" stroke-width="1.5"/>
  <text x="570" y="549" text-anchor="middle" font-size="12" fill="#333">Driver</text>
  <line x1="546.3" y1="476.6" x2="476.7" y2="502.3" stroke="#333" stroke-width="1"/>
  <path d="M478,177 C515,177 515,95 478,95" fill="none" stroke="#555" stroke-width="1" stroke-dasharray="6 3" marker-end="url(#open)"/>
  <text x="520" y="136" text-anchor="start" dominant-baseline="central" font-size="9" fill="#555">«include»</text>
  <path d="M478,259 C545,259 545,177 478,177" fill="none" stroke="#555" stroke-width="1" stroke-dasharray="6 3" marker-end="url(#open)"/>
  <text x="550" y="218" text-anchor="start" dominant-baseline="central" font-size="9" fill="#555">«include»</text>
  <path d="M478,341 C575,341 575,177 478,177" fill="none" stroke="#555" stroke-width="1" stroke-dasharray="6 3" marker-end="url(#open)"/>
  <text x="526" y="287" text-anchor="middle" dominant-baseline="central" font-size="9" fill="#555">«extend»</text>
  <path d="M478,423 C515,423 515,505 478,505" fill="none" stroke="#555" stroke-width="1" stroke-dasharray="6 3" marker-end="url(#open)"/>
  <text x="520" y="464" text-anchor="start" dominant-baseline="central" font-size="9" fill="#555">«include»</text>
</svg>
