<svg xmlns="http://www.w3.org/2000/svg" width="600" height="430" viewBox="0 0 600 430" style="background:white;font-family:Arial,sans-serif;">
  <defs>
    <marker id="open" viewBox="0 0 10 10" refX="9" refY="5"
            markerWidth="7" markerHeight="7" orient="auto">
      <path d="M1 1L9 5L1 9" fill="none" stroke="#333"
            stroke-width="1.5" stroke-linejoin="round"/>
    </marker>
  </defs>
  <rect x="155" y="30" width="400" height="370" rx="5" fill="none" stroke="#333" stroke-width="1.8"/>
  <text x="355" y="52" text-anchor="middle" font-size="13" font-weight="bold" fill="#333">SPF-OMS: Driver &amp; Packaging Worker</text>
  <ellipse cx="355" cy="130" rx="118" ry="18" fill="#f4f4f4" stroke="#333" stroke-width="1"/>
  <text x="355" y="123.5" text-anchor="middle" dominant-baseline="central" font-size="11" fill="#222">UC2.1 View Delivery</text>
  <text x="355" y="136.5" text-anchor="middle" dominant-baseline="central" font-size="11" fill="#222">Manifest</text>
  <ellipse cx="355" cy="270" rx="118" ry="18" fill="#f4f4f4" stroke="#333" stroke-width="1"/>
  <text x="355" y="263.5" text-anchor="middle" dominant-baseline="central" font-size="11" fill="#222">UC2.2 View Packing</text>
  <text x="355" y="276.5" text-anchor="middle" dominant-baseline="central" font-size="11" fill="#222">Queue</text>
  <circle cx="72" cy="100" r="11" fill="none" stroke="#333" stroke-width="1.5"/>
  <line x1="72" y1="111" x2="72" y2="140" stroke="#333" stroke-width="1.5"/>
  <line x1="55" y1="124" x2="89" y2="124" stroke="#333" stroke-width="1.5"/>
  <line x1="72" y1="140" x2="59" y2="162" stroke="#333" stroke-width="1.5"/>
  <line x1="72" y1="140" x2="85" y2="162" stroke="#333" stroke-width="1.5"/>
  <text x="72" y="176" text-anchor="middle" font-size="12" fill="#333">Driver</text>
  <line x1="95.9" y1="102.5" x2="237.7" y2="128.1" stroke="#333" stroke-width="1"/>
  <circle cx="72" cy="238" r="11" fill="none" stroke="#333" stroke-width="1.5"/>
  <line x1="72" y1="249" x2="72" y2="278" stroke="#333" stroke-width="1.5"/>
  <line x1="55" y1="262" x2="89" y2="262" stroke="#333" stroke-width="1.5"/>
  <line x1="72" y1="278" x2="59" y2="300" stroke="#333" stroke-width="1.5"/>
  <line x1="72" y1="278" x2="85" y2="300" stroke="#333" stroke-width="1.5"/>
  <text x="72" y="314" text-anchor="middle" font-size="12" fill="#333">Packaging Worker</text>
  <line x1="95.8" y1="240.7" x2="237.7" y2="268.0" stroke="#333" stroke-width="1"/>
</svg>
