<svg xmlns="http://www.w3.org/2000/svg" width="680" height="790" viewBox="0 0 680 790" style="background:white;font-family:Arial,sans-serif;">
  <defs>
    <marker id="open" viewBox="0 0 10 10" refX="9" refY="5"
            markerWidth="7" markerHeight="7" orient="auto">
      <path d="M1 1L9 5L1 9" fill="none" stroke="#333"
            stroke-width="1.5" stroke-linejoin="round"/>
    </marker>
  </defs>
  <rect x="145" y="30" width="450" height="740" rx="5" fill="none" stroke="#333" stroke-width="1.8"/>
  <text x="370" y="52" text-anchor="middle" font-size="13" font-weight="bold" fill="#333">SPF-OMS: Owner — Supply Chain</text>
  <ellipse cx="370" cy="95" rx="122" ry="18" fill="#f4f4f4" stroke="#333" stroke-width="1"/>
  <text x="370" y="88.5" text-anchor="middle" dominant-baseline="central" font-size="11" fill="#222">UC3.1 Raise Purchase</text>
  <text x="370" y="101.5" text-anchor="middle" dominant-baseline="central" font-size="11" fill="#222">Orders</text>
  <ellipse cx="370" cy="177" rx="122" ry="18" fill="#f4f4f4" stroke="#333" stroke-width="1"/>
  <text x="370" y="170.5" text-anchor="middle" dominant-baseline="central" font-size="11" fill="#222">UC3.2 Approve Purchase</text>
  <text x="370" y="183.5" text-anchor="middle" dominant-baseline="central" font-size="11" fill="#222">Orders Before Dispatch</text>
  <ellipse cx="370" cy="259" rx="122" ry="18" fill="#f4f4f4" stroke="#333" stroke-width="1"/>
  <text x="370" y="252.5" text-anchor="middle" dominant-baseline="central" font-size="11" fill="#222">UC3.3 Record Raw</text>
  <text x="370" y="265.5" text-anchor="middle" dominant-baseline="central" font-size="11" fill="#222">Material Receipts</text>
  <ellipse cx="370" cy="341" rx="122" ry="18" fill="#f4f4f4" stroke="#333" stroke-width="1"/>
  <text x="370" y="328.0" text-anchor="middle" dominant-baseline="central" font-size="11" fill="#222">UC3.4 Set Reorder</text>
  <text x="370" y="341.0" text-anchor="middle" dominant-baseline="central" font-size="11" fill="#222">Quantities per</text>
  <text x="370" y="354.0" text-anchor="middle" dominant-baseline="central" font-size="11" fill="#222">Material</text>
  <ellipse cx="370" cy="423" rx="122" ry="18" fill="#f4f4f4" stroke="#333" stroke-width="1"/>
  <text x="370" y="416.5" text-anchor="middle" dominant-baseline="central" font-size="11" fill="#222">UC3.5 Allocate Raw</text>
  <text x="370" y="429.5" text-anchor="middle" dominant-baseline="central" font-size="11" fill="#222">Materials to Batches</text>
  <ellipse cx="370" cy="505" rx="122" ry="18" fill="#f4f4f4" stroke="#333" stroke-width="1"/>
  <text x="370" y="498.5" text-anchor="middle" dominant-baseline="central" font-size="11" fill="#222">UC3.6 Review Supplier</text>
  <text x="370" y="511.5" text-anchor="middle" dominant-baseline="central" font-size="11" fill="#222">Performance</text>
  <ellipse cx="370" cy="587" rx="122" ry="18" fill="#f4f4f4" stroke="#333" stroke-width="1"/>
  <text x="370" y="580.5" text-anchor="middle" dominant-baseline="central" font-size="11" fill="#222">UC3.7 Track Finished</text>
  <text x="370" y="593.5" text-anchor="middle" dominant-baseline="central" font-size="11" fill="#222">Goods Batches</text>
  <ellipse cx="370" cy="669" rx="122" ry="18" fill="#f4f4f4" stroke="#333" stroke-width="1"/>
  <text x="370" y="662.5" text-anchor="middle" dominant-baseline="central" font-size="11" fill="#222">UC3.8 Track Finished</text>
  <text x="370" y="675.5" text-anchor="middle" dominant-baseline="central" font-size="11" fill="#222">Goods by Location</text>
  <circle cx="68" cy="390" r="11" fill="none" stroke="#333" stroke-width="1.5"/>
  <line x1="68" y1="401" x2="68" y2="430" stroke="#333" stroke-width="1.5"/>
  <line x1="51" y1="414" x2="85" y2="414" stroke="#333" stroke-width="1.5"/>
  <line x1="68" y1="430" x2="55" y2="452" stroke="#333" stroke-width="1.5"/>
  <line x1="68" y1="430" x2="81" y2="452" stroke="#333" stroke-width="1.5"/>
  <text x="68" y="466" text-anchor="middle" font-size="12" fill="#333">Founder</text>
  <text x="68" y="481" text-anchor="middle" font-size="12" fill="#333">Owner</text>
  <line x1="85.2" y1="373.2" x2="282.7" y2="107.6" stroke="#333" stroke-width="1"/>
  <line x1="87.6" y1="376.2" x2="270.3" y2="187.4" stroke="#333" stroke-width="1"/>
  <line x1="90.0" y1="380.4" x2="258.1" y2="266.2" stroke="#333" stroke-width="1"/>
  <line x1="91.7" y1="386.2" x2="249.6" y2="343.9" stroke="#333" stroke-width="1"/>
  <line x1="91.9" y1="392.6" x2="248.7" y2="421.0" stroke="#333" stroke-width="1"/>
  <line x1="90.4" y1="398.5" x2="256.0" y2="498.6" stroke="#333" stroke-width="1"/>
  <line x1="88.1" y1="403.1" x2="267.8" y2="577.2" stroke="#333" stroke-width="1"/>
  <line x1="85.6" y1="406.3" x2="280.4" y2="656.8" stroke="#333" stroke-width="1"/>
  <path d="M492,177 C550,177 550,95 492,95" fill="none" stroke="#555" stroke-width="1" stroke-dasharray="6 3" marker-end="url(#open)"/>
  <text x="555" y="136" text-anchor="start" dominant-baseline="central" font-size="9" fill="#555">«include»</text>
  <path d="M492,259 C575,259 575,95 492,95" fill="none" stroke="#555" stroke-width="1" stroke-dasharray="6 3" marker-end="url(#open)"/>
  <text x="580" y="177" text-anchor="start" dominant-baseline="central" font-size="9" fill="#555">«include»</text>
  <path d="M492,341 C550,341 550,259 492,259" fill="none" stroke="#555" stroke-width="1" stroke-dasharray="6 3" marker-end="url(#open)"/>
  <text x="496" y="300" text-anchor="start" dominant-baseline="central" font-size="9" fill="#555">«extend»</text>
  <path d="M492,669 C550,669 550,587 492,587" fill="none" stroke="#555" stroke-width="1" stroke-dasharray="6 3" marker-end="url(#open)"/>
  <text x="555" y="628" text-anchor="start" dominant-baseline="central" font-size="9" fill="#555">«include»</text>
</svg>
